<?xml version="1.0" encoding="UTF-8"?>
<!DOCTYPE svg PUBLIC "-//W3C//DTD SVG 1.1//EN" "http://www.w3.org/Graphics/SVG/1.1/DTD/svg11.dtd">
<!-- Creator: CorelDRAW X7 -->
<svg xmlns="http://www.w3.org/2000/svg" xml:space="preserve" width="210mm" height="297mm" version="1.1" style="shape-rendering:geometricPrecision; text-rendering:geometricPrecision; image-rendering:optimizeQuality; fill-rule:evenodd; clip-rule:evenodd"
viewBox="0 0 21000 29700"
 xmlns:xlink="http://www.w3.org/1999/xlink">
 <defs>
  <style type="text/css">
   <![CDATA[
    .fil1 {fill:#0099DF}
    .fil3 {fill:#231F1F}
    .fil2 {fill:#6C6BBD}
    .fil0 {fill:#EB001B}
   ]]>
  </style>
 </defs>
 <g id="Слой_x0020_1">
  <metadata id="CorelCorpID_0Corel-Layer"/>
  <circle class="fil0" cx="9717" cy="13243" r="3683"/>
  <circle class="fil1" cx="14286" cy="13243" r="3683"/>
  <path class="fil2" d="M12003 16132c-853,-675 -1400,-1717 -1400,-2889 0,-1169 547,-2213 1400,-2889 850,676 1397,1720 1397,2889 0,1172 -547,2214 -1397,2889z"/>
  <path class="fil3" d="M8070 18034l0 -112 -223 0 0 1003 223 0 0 -517c0,-148 60,-293 213,-293l61 0c114,0 182,107 182,223l0 587 223 0c0,-152 -21,-591 38,-701 57,-106 139,-109 235,-109 155,0 193,146 193,304l0 506 223 0 0 -608c0,-438 -430,-474 -618,-364 -39,23 -109,74 -122,121 -61,-41 -86,-172 -364,-172 -58,0 -116,20 -152,41 -53,30 -69,62 -112,91z"/>
  <path class="fil3" d="M10177 18743c-465,0 -383,-628 -61,-628 99,0 182,3 258,96 178,219 17,532 -197,532zm-557 -314c0,400 389,625 689,486 68,-31 81,-67 131,-101l0 111 223 0 0 -972c0,-51 -86,-31 -223,-31l0 112c-59,-16 -23,-38 -124,-88 -289,-144 -696,65 -696,483z"/>
  <path class="fil3" d="M11342 18105l71 0c118,0 210,115 212,233l-506 0c26,-113 87,-233 223,-233zm-456 293c0,579 551,666 876,451 29,-19 10,-16 46,-25 -4,-42 -77,-135 -102,-172 -30,7 -38,19 -65,36 -196,122 -501,73 -522,-178l739 0 0 -122c0,-271 -193,-486 -496,-486 -264,0 -476,231 -476,496z"/>
  <path class="fil3" d="M15180 18459c0,-94 -2,-143 59,-225l33 -38c164,-153 526,-105 526,253 0,42 -12,94 -27,125 -50,105 -151,173 -277,177 -164,5 -314,-124 -314,-292zm-233 -51c0,178 55,306 155,403 314,308 929,121 929,-372 0,-338 -243,-537 -567,-537 -274,0 -517,233 -517,506z"/>
  <path class="fil3" d="M12081 18216c0,266 263,291 450,320 102,15 168,31 168,105 0,108 -151,112 -233,112 -158,0 -223,-48 -324,-101 -31,59 -70,113 -101,172 375,251 891,116 891,-172 0,-167 -78,-262 -243,-305 -69,-18 -141,-26 -214,-38 -293,-48 -127,-204 -19,-204 277,0 238,51 365,81 16,-71 75,-119 81,-183 -235,-157 -821,-165 -821,213z"/>
  <path class="fil3" d="M13317 17649l0 273 -203 0 0 213 203 0 0 466c0,322 238,401 494,332 49,-13 79,-38 124,-49 -2,-72 -45,-123 -51,-192 -60,5 -344,171 -344,-122l0 -435 354 0 0 -213 -354 0 0 -273c0,-49 -68,-31 -193,-31 -23,0 -30,7 -30,31z"/>
  <path class="fil3" d="M14431 18034l0 -112 -213 0 0 1003 223 0 0 -598c0,-295 301,-196 344,-192 15,-63 60,-149 61,-213 -65,-5 -63,-20 -162,-20 -154,0 -171,77 -253,132z"/>
 </g>
</svg>
