<?xml version="1.0" encoding="UTF-8"?>
<svg width="24px" height="24px" viewBox="0 0 24 24" version="1.1" xmlns="http://www.w3.org/2000/svg" xmlns:xlink="http://www.w3.org/1999/xlink">
    <!-- Generator: Sketch 39.1 (31720) - http://www.bohemiancoding.com/sketch -->
    <title>Artboard</title>
    <desc>Created with Sketch.</desc>
    <defs></defs>
    <g id="Page-1" stroke="none" stroke-width="1" fill="none" fill-rule="evenodd">
        <g id="Artboard">
            <g id="skype">
                <g id="Group">
                    <path d="M3,0 L21,0 C22.6546875,0 24,1.3453125 24,3 L24,21 C24,22.6546875 22.6546875,24 21,24 L3,24 C1.3453125,24 0,22.6546875 0,21 L0,3 C0,1.3453125 1.3453125,0 3,0" id="Shape" fill="#01B7EE"></path>
                    <path d="M20.7140625,13.9921875 C20.8453125,13.3828125 20.9203125,12.75 20.9203125,12.0984375 C20.915625,7.228125 16.96875,3.28125 12.0984375,3.28125 C11.5828125,3.28125 11.08125,3.3234375 10.5890625,3.4078125 C9.8015625,2.915625 8.86875,2.625 7.8703125,2.625 C5.0484375,2.625 2.75625,4.9125 2.75625,7.7390625 C2.75625,8.6859375 3.0140625,9.5671875 3.459375,10.3265625 C3.3421875,10.8984375 3.28125,11.49375 3.28125,12.0984375 C3.28125,16.96875 7.228125,20.915625 12.0984375,20.915625 C12.6515625,20.915625 13.190625,20.8640625 13.715625,20.7703125 C14.4328125,21.1546875 15.2578125,21.375 16.134375,21.375 C18.95625,21.375 21.2484375,19.0875 21.2484375,16.2609375 C21.24375,15.4453125 21.0515625,14.6765625 20.7140625,13.9921875 M16.621875,16.3125 C16.2140625,16.8890625 15.6140625,17.3484375 14.83125,17.671875 C14.0578125,17.9953125 13.1296875,18.1546875 12.075,18.1546875 C10.809375,18.1546875 9.7453125,17.9296875 8.915625,17.49375 C8.325,17.175 7.8328125,16.7390625 7.4625,16.2046875 C7.0875,15.665625 6.9,15.13125 6.9,14.6109375 C6.9,14.2875 7.0265625,14.0109375 7.2703125,13.78125 C7.5140625,13.55625 7.8234375,13.4390625 8.1890625,13.4390625 C8.49375,13.4390625 8.75625,13.528125 8.9671875,13.7109375 C9.16875,13.884375 9.3421875,14.1375 9.4828125,14.465625 C9.6375,14.821875 9.8109375,15.1265625 9.9890625,15.365625 C10.1625,15.5953125 10.4109375,15.7875 10.7296875,15.9375 C11.0484375,16.0875 11.4796875,16.1671875 12.009375,16.1671875 C12.740625,16.1671875 13.3359375,16.0125 13.7859375,15.703125 C14.2265625,15.403125 14.4375,15.0421875 14.4375,14.6015625 C14.4375,14.2546875 14.3296875,13.978125 14.0953125,13.7671875 C13.85625,13.5421875 13.5375,13.36875 13.153125,13.246875 C12.7546875,13.1203125 12.20625,12.9890625 11.5359375,12.84375 C10.621875,12.6515625 9.84375,12.4171875 9.225,12.1546875 C8.5921875,11.8875 8.0859375,11.5125 7.7109375,11.04375 C7.33125,10.5703125 7.1390625,9.975 7.1390625,9.2765625 C7.1390625,8.6109375 7.340625,8.0109375 7.7390625,7.490625 C8.1328125,6.975 8.709375,6.5765625 9.45,6.3046875 C10.1859375,6.0328125 11.053125,5.896875 12.0375,5.896875 C12.825,5.896875 13.5140625,5.9859375 14.0953125,6.16875 C14.6765625,6.3515625 15.16875,6.5953125 15.553125,6.8953125 C15.9421875,7.2 16.228125,7.5234375 16.4109375,7.85625 C16.59375,8.1984375 16.6875,8.5359375 16.6875,8.8640625 C16.6875,9.178125 16.565625,9.4640625 16.3265625,9.7125 C16.0875,9.965625 15.778125,10.0921875 15.421875,10.0921875 C15.0984375,10.0921875 14.840625,10.0125 14.6625,9.853125 C14.4984375,9.7078125 14.325,9.478125 14.1328125,9.1546875 C13.9125,8.7375 13.65,8.409375 13.340625,8.175 C13.0453125,7.95 12.5484375,7.8328125 11.86875,7.8328125 C11.2359375,7.8328125 10.725,7.959375 10.340625,8.2125 C9.975,8.4515625 9.796875,8.728125 9.796875,9.05625 C9.796875,9.2578125 9.853125,9.4265625 9.9703125,9.571875 C10.096875,9.7265625 10.2703125,9.8578125 10.4953125,9.9703125 C10.7296875,10.0875 10.9640625,10.18125 11.203125,10.246875 C11.446875,10.3125 11.859375,10.415625 12.421875,10.546875 C13.134375,10.7015625 13.790625,10.8703125 14.371875,11.0578125 C14.9578125,11.2453125 15.46875,11.4796875 15.88125,11.746875 C16.303125,12.0234375 16.640625,12.375 16.875,12.796875 C17.109375,13.2234375 17.23125,13.74375 17.23125,14.353125 C17.2359375,15.0703125 17.0296875,15.7359375 16.621875,16.3125" id="Shape" fill="#FFFFFF"></path>
                </g>
            </g>
        </g>
    </g>
</svg>