<?xml version="1.0" encoding="UTF-8"?>
<svg width="24px" height="24px" viewBox="0 0 24 24" version="1.1" xmlns="http://www.w3.org/2000/svg" xmlns:xlink="http://www.w3.org/1999/xlink">
    <!-- Generator: Sketch 39.1 (31720) - http://www.bohemiancoding.com/sketch -->
    <title>Artboard</title>
    <desc>Created with Sketch.</desc>
    <defs></defs>
    <g id="Page-1" stroke="none" stroke-width="1" fill="none" fill-rule="evenodd">
        <g id="Artboard" fill="#231F20">
            <g id="contact-phone" transform="translate(1.000000, 0.000000)">
                <g id="Group">
                    <path d="M14.8541667,14.496 C14.4708333,14.112 13.8958333,14.112 13.5125,14.496 C13.5125,14.496 12.1708333,15.744 12.075,15.84 C11.3083333,15.84 9.39166667,14.208 8.14583333,12.576 C7.37916667,11.616 7.37916667,11.136 7.37916667,11.04 L8.81666667,9.6 C9.00833333,9.408 9.10416667,9.216 9.10416667,8.928 C9.10416667,8.64 9.00833333,8.448 8.81666667,8.256 L4.21666667,3.648 C4.12083333,3.456 3.83333333,3.36 3.54583333,3.36 C3.25833333,3.36 3.06666667,3.456 2.875,3.648 C2.77916667,3.744 2.5875,3.936 2.49166667,4.032 C1.34166667,5.088 0,6.336 0,8.352 C0,10.752 1.725,13.728 5.55833333,17.568 C9.39166667,21.504 12.3625,23.328 14.7583333,23.328 C16.8666667,23.328 18.1125,21.888 19.2625,20.64 L19.55,20.352 C19.9333333,19.968 19.9333333,19.392 19.55,19.008 L14.8541667,14.496 L14.8541667,14.496 Z M18.5916667,20.064 C17.4416667,21.312 16.3875,22.368 14.7583333,22.368 C12.65,22.368 9.87083333,20.544 6.22916667,16.896 C2.68333333,13.248 0.958333333,10.464 0.958333333,8.352 C0.958333333,6.816 2.10833333,5.76 3.1625,4.8 C3.35416667,4.608 3.45,4.512 3.64166667,4.32 L8.24166667,8.928 L6.70833333,10.368 C6.42083333,10.656 6.42083333,11.232 6.6125,11.904 C7.37916667,13.632 10.4458333,16.896 12.075,16.896 C12.2666667,16.896 12.4583333,16.896 12.5541667,16.8 L12.7458333,16.704 C12.8416667,16.608 14.0875,15.36 14.0875,15.36 L18.6875,19.968 L18.5916667,20.064 L18.5916667,20.064 Z" id="Shape"></path>
                    <path d="M18.0166667,11.424 C18.0166667,11.712 18.2083333,11.904 18.4958333,11.904 L18.4958333,11.904 C18.7833333,11.904 18.975,11.712 18.975,11.424 C19.0708333,9.504 18.3041667,7.584 16.9625,6.24 C15.6208333,4.896 13.8,4.128 11.7875,4.224 C11.5,4.224 11.3083333,4.416 11.3083333,4.704 C11.3083333,4.992 11.5,5.184 11.7875,5.184 C13.5125,5.088 15.1416667,5.76 16.2916667,6.912 C17.4416667,8.064 18.1125,9.696 18.0166667,11.424" id="Shape"></path>
                    <path d="M19.2625,3.936 C17.25,1.92 14.6625,0.864 11.7875,0.96 C11.5,0.96 11.3083333,1.152 11.3083333,1.44 C11.3083333,1.728 11.5958333,1.92 11.7875,1.92 C14.375,1.824 16.7708333,2.784 18.4958333,4.608 C20.3166667,6.432 21.275,8.832 21.1791667,11.328 C21.1791667,11.616 21.3708333,11.808 21.6583333,11.808 L21.6583333,11.808 C21.9458333,11.808 22.1375,11.616 22.1375,11.328 C22.3291667,8.64 21.275,5.952 19.2625,3.936" id="Shape"></path>
                    <path d="M11.3083333,7.968 C11.3083333,8.256 11.5958333,8.448 11.7875,8.448 C12.5541667,8.448 13.3208333,8.64 13.8958333,9.216 C14.4708333,9.792 14.7583333,10.56 14.6625,11.328 C14.6625,11.616 14.8541667,11.808 15.1416667,11.808 L15.1416667,11.808 C15.4291667,11.808 15.6208333,11.616 15.6208333,11.328 C15.7166667,10.272 15.3333333,9.216 14.5666667,8.448 C13.8,7.68 12.7458333,7.296 11.6916667,7.392 C11.5,7.488 11.3083333,7.68 11.3083333,7.968" id="Shape"></path>
                </g>
            </g>
        </g>
    </g>
</svg>