<?xml version="1.0" encoding="UTF-8"?>
<svg width="16px" height="24px" viewBox="0 0 16 24" version="1.1" xmlns="http://www.w3.org/2000/svg" xmlns:xlink="http://www.w3.org/1999/xlink">
    <!-- Generator: Sketch 39.1 (31720) - http://www.bohemiancoding.com/sketch -->
    <title>Artboard</title>
    <desc>Created with Sketch.</desc>
    <defs></defs>
    <g id="Page-1" stroke="none" stroke-width="1" fill="none" fill-rule="evenodd">
        <g id="Artboard" fill="#231F20">
            <g id="contact-map">
                <g id="Group">
                    <path d="M7.9,0 C3.5,0 0,3.5 0,7.9 C0,12 7.1,23 7.5,23.4 C7.6,23.5 7.7,23.6 7.9,23.6 C8.1,23.6 8.2,23.5 8.3,23.4 C8.6,23 15.7,12 15.7,7.9 C15.7,3.5 12.2,0 7.9,0 M7.9,22.2 C6.3,19.8 1,11.2 1,7.9 C1,4.1 4.1,1 7.9,1 C11.7,1 14.8,4.1 14.8,7.9 C14.7,11.2 9.4,19.8 7.9,22.2" id="Shape"></path>
                    <path d="M7.9,3.8 C6.2,3.8 4.9,5.2 4.9,6.8 C4.9,8.5 6.3,9.8 7.9,9.8 C9.5,9.8 10.9,8.4 10.9,6.8 C10.9,5.1 9.5,3.8 7.9,3.8 M7.9,8.9 C6.8,8.9 5.9,8 5.9,6.9 C5.9,5.8 6.8,4.9 7.9,4.9 C9,4.9 9.9,5.8 9.9,6.9 C9.9,7.9 9,8.9 7.9,8.9" id="Shape"></path>
                </g>
            </g>
        </g>
    </g>
</svg>