<?xml version="1.0" encoding="UTF-8"?>
<svg width="24px" height="24px" viewBox="0 0 24 24" version="1.1" xmlns="http://www.w3.org/2000/svg" xmlns:xlink="http://www.w3.org/1999/xlink">
    <!-- Generator: Sketch 39.1 (31720) - http://www.bohemiancoding.com/sketch -->
    <title>Artboard</title>
    <desc>Created with Sketch.</desc>
    <defs></defs>
    <g id="Page-1" stroke="none" stroke-width="1" fill="none" fill-rule="evenodd">
        <g id="Artboard">
            <g id="whatsapp">
                <g id="Group">
                    <path d="M3,0 L21,0 C22.6546875,0 24,1.3453125 24,3 L24,21 C24,22.6546875 22.6546875,24 21,24 L3,24 C1.3453125,24 0,22.6546875 0,21 L0,3 C0,1.3453125 1.3453125,0 3,0" id="Shape" fill="#65BC54"></path>
                    <path d="M21.375,11.7609375 C21.375,16.8046875 17.2546875,20.8921875 12.16875,20.8921875 C10.55625,20.8921875 9.0375,20.4796875 7.7203125,19.7578125 L2.625,21.375 L4.284375,16.4765625 C3.4453125,15.0984375 2.9625,13.4859375 2.9625,11.7609375 C2.9671875,6.7125 7.0875,2.625 12.16875,2.625 C17.2546875,2.625 21.375,6.7125 21.375,11.7609375 M12.16875,4.078125 C7.903125,4.078125 4.4296875,7.5234375 4.4296875,11.75625 C4.4296875,13.434375 4.978125,14.990625 5.9015625,16.25625 L4.9359375,19.10625 L7.9078125,18.159375 C9.13125,18.9609375 10.59375,19.4296875 12.1640625,19.4296875 C16.4296875,19.4296875 19.903125,15.984375 19.903125,11.7515625 C19.9078125,7.5234375 16.4390625,4.078125 12.16875,4.078125 M16.81875,13.8609375 C16.7625,13.7671875 16.6125,13.7109375 16.3875,13.5984375 C16.1625,13.4859375 15.0515625,12.946875 14.8453125,12.871875 C14.6390625,12.796875 14.4890625,12.759375 14.3390625,12.984375 C14.1890625,13.209375 13.7578125,13.7109375 13.6265625,13.8609375 C13.4953125,14.0109375 13.3640625,14.0296875 13.1390625,13.9171875 C12.9140625,13.8046875 12.1875,13.5703125 11.325,12.80625 C10.6546875,12.2109375 10.2,11.4796875 10.06875,11.2546875 C9.9375,11.0296875 10.0546875,10.9078125 10.1671875,10.8 C10.2703125,10.7015625 10.3921875,10.5375 10.5046875,10.40625 C10.6171875,10.275 10.6546875,10.18125 10.7296875,10.03125 C10.8046875,9.88125 10.7671875,9.75 10.7109375,9.6375 C10.6546875,9.525 10.2046875,8.4234375 10.0171875,7.978125 C9.8296875,7.528125 9.6421875,7.603125 9.5109375,7.603125 C9.3796875,7.603125 9.2296875,7.584375 9.0796875,7.584375 C8.9296875,7.584375 8.6859375,7.640625 8.4796875,7.865625 C8.2734375,8.090625 7.6921875,8.6296875 7.6921875,9.73125 C7.6921875,10.8328125 8.4984375,11.896875 8.615625,12.046875 C8.728125,12.196875 10.1765625,14.53125 12.46875,15.4265625 C14.7609375,16.321875 14.7609375,16.021875 15.178125,15.984375 C15.590625,15.946875 16.5140625,15.4453125 16.7015625,14.9203125 C16.875,14.4046875 16.875,13.9546875 16.81875,13.8609375" id="Shape" fill="#FFFFFF"></path>
                </g>
            </g>
        </g>
    </g>
</svg>